<svg width="59" height="60" viewBox="0 0 59 60" fill="none" xmlns="http://www.w3.org/2000/svg">
<path d="M58.3496 30.124C58.3496 46.1403 45.3659 59.124 29.3496 59.124C13.3334 59.124 0.349609 46.1403 0.349609 30.124C0.349609 14.1078 13.3334 1.12402 29.3496 1.12402C45.3659 1.12402 58.3496 14.1078 58.3496 30.124Z" fill="#458DBE"/>
<path d="M41.0196 16.7783H17.6796C16.7972 16.781 15.9518 17.1326 15.3279 17.7566C14.7039 18.3805 14.3522 19.226 14.3496 20.1083V37.4383C14.3496 38.3224 14.7001 39.1704 15.3243 39.7965C15.9485 40.4226 16.7955 40.7757 17.6796 40.7783H26.3496L28.2696 45.7783C28.4034 45.9942 28.5906 46.1719 28.813 46.2945C29.0354 46.4171 29.2856 46.4804 29.5396 46.4783C29.7974 46.4752 30.0501 46.4065 30.274 46.2788C30.4979 46.1511 30.6857 45.9686 30.8196 45.7483L32.6396 40.7483H41.0196C41.8985 40.7457 42.741 40.3968 43.3644 39.7772C43.9877 39.1576 44.3417 38.3172 44.3496 37.4383V20.1083C44.347 19.226 43.9953 18.3805 43.3714 17.7566C42.7474 17.1326 41.902 16.781 41.0196 16.7783ZM34.3496 26.7783H24.3496C24.0844 26.7783 23.83 26.673 23.6425 26.4854C23.455 26.2979 23.3496 26.0435 23.3496 25.7783C23.3496 25.5131 23.455 25.2587 23.6425 25.0712C23.83 24.8837 24.0844 24.7783 24.3496 24.7783H34.3496C34.6148 24.7783 34.8692 24.8837 35.0567 25.0712C35.2443 25.2587 35.3496 25.5131 35.3496 25.7783C35.3496 26.0435 35.2443 26.2979 35.0567 26.4854C34.8692 26.673 34.6148 26.7783 34.3496 26.7783ZM35.3496 31.3283C35.3496 31.5935 35.2443 31.8479 35.0567 32.0354C34.8692 32.223 34.6148 32.3283 34.3496 32.3283H24.3496C24.0844 32.3283 23.83 32.223 23.6425 32.0354C23.455 31.8479 23.3496 31.5935 23.3496 31.3283C23.3496 31.0631 23.455 30.8087 23.6425 30.6212C23.83 30.4337 24.0844 30.3283 24.3496 30.3283H34.3496C34.6148 30.3283 34.8692 30.4337 35.0567 30.6212C35.2443 30.8087 35.3496 31.0631 35.3496 31.3283Z" fill="#FFFFFE"/>
</svg>
